{
  "asset": {
    "version": "2.0",
    "generator": "Sketchup glTF Exporter v1.2.6 by Centaur"
  },
  "scene": 0,
  "scenes": [
    {
      "nodes": [
        0
      ]
    }
  ],
  "samplers": [
    {
    }
  ],
  "nodes": [
    {
      "name": "root",
      "mesh": 0
    }
  ],
  "materials": [
    {
      "pbrMetallicRoughness": {
        "baseColorFactor": [
          0.043,
          0.0658,
          0.0415,
          1.0
        ],
        "metallicFactor": 0.1,
        "roughnessFactor": 0.9
      },
      "name": "0070_Весенний зеленый"
    },
    {
      "pbrMetallicRoughness": {
        "baseColorFactor": [
          0.2176,
          0.2176,
          0.2176,
          1.0
        ],
        "metallicFactor": 0.1,
        "roughnessFactor": 0.9
      },
      "name": "default material",
      "doubleSided": true
    },
    {
      "pbrMetallicRoughness": {
        "baseColorFactor": [
          1.0,
          0.6524,
          0.0461,
          1.0
        ],
        "metallicFactor": 0.1,
        "roughnessFactor": 0.9
      },
      "name": "[0073_MediumSeaGreen]1"
    },
    {
      "pbrMetallicRoughness": {
        "baseColorFactor": [
          0.0041,
          0.0892,
          0.3021,
          1.0
        ],
        "metallicFactor": 0.1,
        "roughnessFactor": 0.9
      },
      "name": "0079_Зеленовато-бирюзовый"
    },
    {
      "pbrMetallicRoughness": {
        "baseColorFactor": [
          0.5114,
          0.1087,
          0.0231,
          1.0
        ],
        "metallicFactor": 0.1,
        "roughnessFactor": 0.9
      },
      "name": "0078_Темный синевато-серый"
    },
    {
      "pbrMetallicRoughness": {
        "baseColorFactor": [
          0.7155,
          0.7083,
          0.7299,
          1.0
        ],
        "metallicFactor": 0.1,
        "roughnessFactor": 0.9
      },
      "name": "0080_Темный циан"
    },
    {
      "pbrMetallicRoughness": {
        "baseColorFactor": [
          1.0,
          0.9406,
          0.3736,
          1.0
        ],
        "metallicFactor": 0.1,
        "roughnessFactor": 0.9
      },
      "name": "0073_Умеренный морской волны"
    }
  ],
  "meshes": [
    {
      "primitives": [
        {
          "attributes": {
            "POSITION": 0,
            "NORMAL": 1
          },
          "indices": 2,
          "mode": 4,
          "material": 0
        },
        {
          "attributes": {
            "POSITION": 0,
            "NORMAL": 1
          },
          "indices": 3,
          "mode": 4,
          "material": 1
        },
        {
          "attributes": {
            "POSITION": 0,
            "NORMAL": 1
          },
          "indices": 4,
          "mode": 4,
          "material": 2
        },
        {
          "attributes": {
            "POSITION": 0,
            "NORMAL": 1
          },
          "indices": 5,
          "mode": 4,
          "material": 3
        },
        {
          "attributes": {
            "POSITION": 0,
            "NORMAL": 1
          },
          "indices": 6,
          "mode": 4,
          "material": 4
        },
        {
          "attributes": {
            "POSITION": 0,
            "NORMAL": 1
          },
          "indices": 7,
          "mode": 4,
          "material": 5
        },
        {
          "attributes": {
            "POSITION": 0,
            "NORMAL": 1
          },
          "indices": 8,
          "mode": 4,
          "material": 6
        }
      ]
    }
  ],
  "accessors": [
    {
      "bufferView": 0,
      "componentType": 5126,
      "count": 3071,
      "type": "VEC3",
      "min": [
        -0.4375129028413145,
        -0.33553484752731405,
        -0.8959745090508251
      ],
      "max": [
        0.35205053535571396,
        0.20091074154056235,
        0.27832280105814505
      ]
    },
    {
      "bufferView": 1,
      "componentType": 5126,
      "count": 3071,
      "type": "VEC3",
      "min": [
        -0.8413996697045341,
        -0.8415107820268986,
        -0.9998389046003238
      ],
      "max": [
        0.8413996697045912,
        0.8415107819474431,
        0.9998389046003229
      ]
    },
    {
      "bufferView": 2,
      "componentType": 5123,
      "count": 1452,
      "type": "SCALAR"
    },
    {
      "bufferView": 2,
      "componentType": 5123,
      "count": 168,
      "type": "SCALAR",
      "byteOffset": 2904
    },
    {
      "bufferView": 2,
      "componentType": 5123,
      "count": 2169,
      "type": "SCALAR",
      "byteOffset": 3240
    },
    {
      "bufferView": 2,
      "componentType": 5123,
      "count": 2457,
      "type": "SCALAR",
      "byteOffset": 7578
    },
    {
      "bufferView": 2,
      "componentType": 5123,
      "count": 432,
      "type": "SCALAR",
      "byteOffset": 12492
    },
    {
      "bufferView": 2,
      "componentType": 5123,
      "count": 150,
      "type": "SCALAR",
      "byteOffset": 13356
    },
    {
      "bufferView": 2,
      "componentType": 5123,
      "count": 1365,
      "type": "SCALAR",
      "byteOffset": 13656
    }
  ],
  "bufferViews": [
    {
      "buffer": 0,
      "byteLength": 36852,
      "target": 34962,
      "byteStride": 12
    },
    {
      "buffer": 0,
      "byteOffset": 36852,
      "byteLength": 36852,
      "target": 34962,
      "byteStride": 12
    },
    {
      "buffer": 0,
      "byteOffset": 73704,
      "byteLength": 16386,
      "target": 34963
    }
  ],
  "buffers": [
    {
      "uri": "data:application/octet-stream;base64,",
      "byteLength": 90090
    }
  ]
}